#N canvas 122 50 1440 742 16;
#X obj 655 215 shepTone;
#X obj 658 183 mtof;
#X obj 657 507 dac~;
#X obj 772 216 r volume;
#X floatatom 907 46 5 0 90 0 - - -;
#X obj 770 254 dbtorms;
#X obj 908 81 s volume;
#X obj 908 151 s attack;
#X obj 1013 154 s decay;
#X obj 1103 153 s sustain;
#X obj 1210 151 s release;
#X floatatom 907 120 5 0 0 0 - - -;
#X floatatom 1012 127 5 0 0 0 - - -;
#X floatatom 1103 123 5 0 0 0 - - -;
#X floatatom 1211 120 5 0 0 0 - - -;
#X obj 660 148 r pitch;
#X obj 758 448 *~;
#X floatatom 149 441 5 0 100 0 - - -;
#X obj 133 491 s droneVolume;
#X floatatom 67 544 0 0 0 0 - - -;
#X obj 69 581 s dronePitch;
#X floatatom 222 545 5 0 2 0 - - -;
#X obj 220 585 s droneVibratoDepth;
#X obj 946 330 bng 15 250 50 0 empty empty empty 17 7 0 10 -262144
-1 -1;
#X obj 949 391 s playNote;
#X obj 1042 233 bng 15 250 50 0 empty empty empty 17 7 0 10 -262144
-1 -1;
#X obj 1132 378 s pitch;
#X obj 983 283 t b b;
#X obj 1090 276 float;
#X floatatom 1066 379 5 0 0 0 - - -;
#X obj 1151 275 + 1;
#X obj 1090 310 mod 12;
#X text 1081 230 testing;
#X obj 1092 345 + 12;
#X floatatom 1210 240 5 0 0 0 - - -;
#X obj 605 444 *~;
#X obj 270 250 osc~;
#X obj 333 257 osc~;
#X obj 197 256 osc~;
#X floatatom 263 143 5 0 0 0 - - -;
#X obj 262 108 mtof;
#X obj 366 149 r droneVibratoDepth;
#X obj 262 74 r dronePitch;
#X obj 416 292 dbtorms;
#X obj 420 253 r droneVolume;
#X obj 55 228 osc~;
#X obj 339 380 *~;
#X obj 38 275 *~ 0.3;
#X obj 339 335 +~;
#X obj 210 354 +~;
#X obj 222 394 *~;
#X floatatom 161 631 5 0 200 0 - - -;
#X obj 159 671 s droneLow;
#X obj 110 134 r droneLow;
#X obj 151 549 bng 15 250 50 0 empty empty empty 17 7 0 10 -262144
-1 -1;
#X obj 58 184 / 2;
#X obj 314 201 - 0.3;
#X obj 197 196 + 0.3;
#X connect 0 0 16 0;
#X connect 0 0 35 0;
#X connect 1 0 0 0;
#X connect 3 0 5 0;
#X connect 4 0 6 0;
#X connect 5 0 16 1;
#X connect 5 0 35 1;
#X connect 11 0 7 0;
#X connect 12 0 8 0;
#X connect 13 0 9 0;
#X connect 14 0 10 0;
#X connect 15 0 1 0;
#X connect 16 0 2 1;
#X connect 17 0 18 0;
#X connect 19 0 20 0;
#X connect 21 0 22 0;
#X connect 21 0 54 0;
#X connect 23 0 24 0;
#X connect 25 0 27 0;
#X connect 27 0 24 0;
#X connect 27 1 28 0;
#X connect 28 0 30 0;
#X connect 28 0 31 0;
#X connect 30 0 28 1;
#X connect 31 0 33 0;
#X connect 33 0 26 0;
#X connect 33 0 29 0;
#X connect 34 0 30 1;
#X connect 35 0 2 0;
#X connect 36 0 48 1;
#X connect 36 0 49 1;
#X connect 37 0 48 1;
#X connect 38 0 49 1;
#X connect 39 0 36 0;
#X connect 39 0 55 0;
#X connect 39 0 56 0;
#X connect 39 0 57 0;
#X connect 40 0 39 0;
#X connect 41 0 56 1;
#X connect 41 0 57 1;
#X connect 42 0 40 0;
#X connect 43 0 46 1;
#X connect 43 0 50 1;
#X connect 44 0 43 0;
#X connect 45 0 47 0;
#X connect 46 0 35 0;
#X connect 47 0 48 0;
#X connect 47 0 49 0;
#X connect 48 0 46 0;
#X connect 49 0 50 0;
#X connect 50 0 16 0;
#X connect 51 0 52 0;
#X connect 53 0 47 1;
#X connect 54 0 19 0;
#X connect 55 0 45 0;
#X connect 56 0 37 0;
#X connect 57 0 38 0;
